<svg xmlns="http://www.w3.org/2000/svg" width="250" height="53" fill="none" viewBox="0 0 250 53">
  <path fill="#000" d="M35.04 41.104 8.208 13.888l1.344.336L9.648 40H4.992V4.24h.24l26.544 27.312-1.104-.24-.096-26.016h4.608v35.808h-.144Zm7.292-11.232c0-1.984.464-3.776 1.392-5.376.96-1.6 2.272-2.864 3.936-3.792 1.664-.928 3.552-1.392 5.664-1.392 2.176 0 4.08.464 5.712 1.392 1.632.928 2.896 2.192 3.792 3.792.896 1.6 1.344 3.392 1.344 5.376 0 1.984-.448 3.792-1.344 5.424-.896 1.6-2.176 2.864-3.84 3.792-1.632.928-3.536 1.392-5.712 1.392-2.112 0-4-.432-5.664-1.296a10.275 10.275 0 0 1-3.888-3.696c-.928-1.6-1.392-3.472-1.392-5.616Zm4.464.048c0 1.28.288 2.448.864 3.504a6.776 6.776 0 0 0 2.304 2.448c.992.608 2.08.912 3.264.912 1.248 0 2.352-.304 3.312-.912a6.277 6.277 0 0 0 2.304-2.448c.544-1.056.816-2.224.816-3.504 0-1.28-.272-2.432-.816-3.456a6.194 6.194 0 0 0-2.304-2.496c-.96-.64-2.064-.96-3.312-.96-1.216 0-2.32.32-3.312.96a7.069 7.069 0 0 0-2.304 2.544c-.544 1.024-.816 2.16-.816 3.408Zm25.34-18.528H76.6v8.832h5.472v3.504H76.6V40h-4.464V23.728h-3.648v-3.504h3.648v-8.832ZM95.722 40.48c-1.856 0-3.552-.4-5.088-1.2-1.504-.8-2.704-1.968-3.6-3.504-.864-1.568-1.296-3.472-1.296-5.712 0-2.208.464-4.112 1.392-5.712.928-1.632 2.16-2.88 3.696-3.744 1.568-.864 3.28-1.296 5.136-1.296 1.856 0 3.424.432 4.704 1.296 1.28.832 2.256 1.824 2.928 2.976l-.288.768.432-4.224h4.128V40h-4.464v-5.184l.48 1.152c-.128.32-.416.736-.864 1.248-.416.48-.992.976-1.728 1.488-.704.512-1.52.944-2.448 1.296-.928.32-1.968.48-3.12.48Zm1.2-3.696c1.12 0 2.128-.208 3.024-.624a5.917 5.917 0 0 0 2.208-1.728c.608-.768 1.024-1.68 1.248-2.736v-3.888a5.916 5.916 0 0 0-1.344-2.496 6.31 6.31 0 0 0-2.304-1.68c-.896-.416-1.888-.624-2.976-.624a6.384 6.384 0 0 0-3.264.864 6.637 6.637 0 0 0-2.4 2.4c-.576 1.024-.864 2.224-.864 3.6 0 1.28.304 2.448.912 3.504a6.786 6.786 0 0 0 2.448 2.496 6.375 6.375 0 0 0 3.312.912Zm20.589-25.392h4.464v8.832h5.472v3.504h-5.472V40h-4.464V23.728h-3.648v-3.504h3.648v-8.832Zm19.314 8.736.384 4.848-.192-.768c.64-1.472 1.68-2.64 3.12-3.504 1.44-.896 3.104-1.344 4.992-1.344s3.424.56 4.608 1.68c1.216 1.088 1.84 2.512 1.872 4.272V40h-4.512V26.896c-.032-1.088-.352-1.968-.96-2.64-.576-.704-1.488-1.056-2.736-1.056a5.37 5.37 0 0 0-3.12.96c-.928.64-1.664 1.52-2.208 2.64-.512 1.12-.768 2.416-.768 3.888V40h-4.464V20.128h3.984Zm22.547 0h4.464V40h-4.464V20.128Zm-.336-7.2c0-.704.272-1.296.816-1.776.576-.48 1.2-.72 1.872-.72.672 0 1.264.24 1.776.72.544.48.816 1.072.816 1.776 0 .736-.272 1.344-.816 1.824a2.616 2.616 0 0 1-1.776.672c-.672 0-1.296-.24-1.872-.72-.544-.48-.816-1.072-.816-1.776ZM171.56 40V2.848h4.464V40h-4.464Zm9.264-13.2 9.12 13.2h-5.232l-6.864-10.704 2.976-2.496Zm-6.192 6.864-.432-4.272 12.048-9.696 2.736 2.352-14.352 11.616Zm40.993-.851a1.563 1.563 0 0 1 1.563-1.563h6.25a1.561 1.561 0 0 1 1.104 2.667c-.293.293-.69.458-1.104.458h-6.25a1.562 1.562 0 0 1-1.563-1.563Zm0-6.25A1.563 1.563 0 0 1 217.188 25h15.624a1.562 1.562 0 1 1 0 3.125h-15.624a1.562 1.562 0 0 1-1.563-1.563Zm0-6.25a1.563 1.563 0 0 1 1.563-1.563h15.624a1.562 1.562 0 1 1 0 3.125h-15.624a1.562 1.562 0 0 1-1.563-1.563Zm0-6.25a1.563 1.563 0 0 1 1.563-1.563h15.624a1.562 1.562 0 1 1 0 3.125h-15.624a1.562 1.562 0 0 1-1.563-1.563Z"/>
  <path fill="#000" d="M209.375 0h31.25a6.248 6.248 0 0 1 6.25 6.25v37.5a6.247 6.247 0 0 1-6.25 6.25h-31.25a6.248 6.248 0 0 1-6.25-6.25v-3.125h3.125v3.125a3.125 3.125 0 0 0 3.125 3.125h31.25a3.125 3.125 0 0 0 3.125-3.125V6.25a3.125 3.125 0 0 0-3.125-3.125h-31.25a3.125 3.125 0 0 0-3.125 3.125v3.125h-3.125V6.25a6.247 6.247 0 0 1 6.25-6.25Z"/>
  <path fill="#000" d="M203.125 15.625v-1.563a1.563 1.563 0 0 1 3.125 0v1.563h1.562a1.562 1.562 0 1 1 0 3.125h-6.25a1.561 1.561 0 0 1-1.104-2.667c.293-.293.69-.458 1.104-.458h1.563Zm0 9.375v-1.563a1.563 1.563 0 0 1 3.125 0V25h1.562a1.562 1.562 0 1 1 0 3.125h-6.25a1.561 1.561 0 0 1-1.104-2.667c.293-.293.69-.458 1.104-.458h1.563Zm0 9.375v-1.563a1.563 1.563 0 0 1 3.125 0v1.563h1.562a1.562 1.562 0 1 1 0 3.125h-6.25a1.561 1.561 0 0 1-1.104-2.667c.293-.293.69-.458 1.104-.458h1.563Z"/>
</svg>
